<svg width="232" height="30" viewBox="0 0 232 30" fill="none" xmlns="http://www.w3.org/2000/svg">
<path d="M218.199 29.4436C218.174 29.2669 218.161 29.1155 218.161 28.9893C218.161 28.8378 218.161 28.6612 218.161 28.4592C218.161 28.0302 218.174 27.5254 218.199 26.9449C218.225 26.3391 218.277 25.5441 218.354 24.5598C218.458 23.5754 218.6 22.2882 218.781 20.6982C218.962 19.0576 219.104 17.8209 219.207 16.988C219.311 16.1551 219.388 15.5493 219.44 15.1708C219.492 14.7669 219.517 14.4388 219.517 14.1864C219.543 13.6816 219.505 13.1895 219.401 12.7099C219.324 12.2304 219.014 11.9906 218.471 11.9906C218.057 11.9906 217.579 12.2682 217.036 12.8235C216.494 13.3788 216.029 14.3252 215.641 15.6629L214.555 15.4358C214.633 14.9815 214.788 14.4641 215.021 13.8836C215.279 13.2778 215.615 12.6847 216.029 12.1042C216.442 11.5237 216.946 11.0441 217.54 10.6655C218.135 10.287 218.82 10.0977 219.595 10.0977C220.758 10.0977 221.533 10.4889 221.921 11.2713C222.309 12.0537 222.477 13.1011 222.425 14.4136C222.399 14.9688 222.322 15.5872 222.192 16.2687C222.089 16.9249 221.973 17.619 221.843 18.3509H221.96C222.709 16.1551 223.485 14.4641 224.286 13.2778C225.113 12.0916 225.94 11.2713 226.767 10.817C227.62 10.3374 228.459 10.0977 229.287 10.0977C230.062 10.0977 230.708 10.2996 231.225 10.7034C231.742 11.082 232 11.612 232 12.2935C232 12.7478 231.832 13.1642 231.496 13.5428C231.186 13.9214 230.76 14.1107 230.217 14.1107C229.752 14.1107 229.351 13.9719 229.015 13.6943C228.679 13.4166 228.485 13.0254 228.434 12.5206C227.71 12.3692 226.999 12.5963 226.302 13.2021C225.63 13.8078 224.983 14.6786 224.363 15.8144C223.769 16.9249 223.239 18.1742 222.774 19.5624C222.334 20.9506 221.986 22.364 221.727 23.8026C221.469 25.2412 221.339 26.5789 221.339 27.8156C221.339 28.1942 221.339 28.4845 221.339 28.6864C221.365 28.8631 221.391 29.1155 221.417 29.4436H218.199Z" fill="white"/>
<path d="M206.742 10.0977C207.672 10.0977 208.551 10.2365 209.378 10.5141C210.205 10.7917 210.877 11.246 211.393 11.877C211.91 12.508 212.169 13.3661 212.169 14.4514C212.169 15.4862 211.807 16.3822 211.083 17.1394C210.36 17.8966 209.416 18.5276 208.253 19.0324C207.09 19.5119 205.85 19.9031 204.532 20.206C203.214 20.5089 201.947 20.7234 200.733 20.8496C200.733 22.4144 200.888 23.7269 201.198 24.7869C201.534 25.847 202.025 26.642 202.671 27.172C203.317 27.7021 204.144 27.9671 205.152 27.9671C205.902 27.9671 206.651 27.803 207.401 27.4749C208.176 27.1468 208.912 26.6546 209.61 25.9984C210.308 25.317 210.941 24.4462 211.51 23.3861L212.789 24.1055C212.065 25.4179 211.29 26.5032 210.463 27.3613C209.636 28.2195 208.732 28.8505 207.749 29.2543C206.767 29.6581 205.682 29.86 204.493 29.86C202.038 29.86 200.229 29.1155 199.066 27.6264C197.903 26.112 197.321 24.1307 197.321 21.6825C197.321 20.2186 197.515 18.7926 197.903 17.4044C198.291 16.0163 198.872 14.7795 199.647 13.6943C200.423 12.5837 201.405 11.713 202.594 11.082C203.782 10.4258 205.165 10.0977 206.742 10.0977ZM206.199 11.3849C205.01 11.3849 204.028 11.7761 203.253 12.5585C202.503 13.3409 201.922 14.3505 201.508 15.5872C201.12 16.8239 200.875 18.1238 200.772 19.4867C202.141 19.31 203.446 18.9945 204.687 18.5402C205.927 18.0859 206.948 17.5054 207.749 16.7987C208.551 16.0668 208.951 15.2212 208.951 14.2621C208.951 13.4545 208.719 12.773 208.253 12.2178C207.814 11.6625 207.129 11.3849 206.199 11.3849Z" fill="white"/>
<path d="M190.296 29.86C189.081 29.86 188.254 29.5445 187.815 28.9136C187.375 28.2826 187.156 27.3866 187.156 26.2256C187.156 25.5189 187.207 24.686 187.311 23.7269C187.44 22.7678 187.582 21.7456 187.737 20.6603C187.918 19.575 188.06 18.4771 188.164 17.3666C188.293 16.256 188.357 15.196 188.357 14.1864C188.357 13.8836 188.306 13.5554 188.202 13.2021C188.125 12.8487 187.957 12.5459 187.698 12.2935C187.44 12.0158 187.052 11.877 186.535 11.877C185.812 11.877 185.088 12.2051 184.364 12.8614C183.641 13.5176 182.956 14.401 182.31 15.5115C181.664 16.622 181.082 17.8587 180.565 19.2217C180.049 20.5593 179.635 21.9475 179.325 23.3861C179.041 24.7996 178.898 26.1499 178.898 27.4371C178.898 27.8156 178.898 28.169 178.898 28.4971C178.924 28.8 178.95 29.1155 178.976 29.4436H175.72C175.694 29.2669 175.681 29.1155 175.681 28.9893C175.681 28.8378 175.681 28.6612 175.681 28.4592C175.681 28.0302 175.707 27.538 175.758 26.9827C175.81 26.4022 175.888 25.6451 175.991 24.7112C176.12 23.7521 176.275 22.4775 176.456 20.8875C176.637 19.3983 176.766 18.2373 176.844 17.4044C176.947 16.5715 177.025 15.9406 177.076 15.5115C177.128 15.0572 177.154 14.7164 177.154 14.4893C177.18 14.2369 177.193 13.9719 177.193 13.6943C177.193 13.2399 177.128 12.8487 176.999 12.5206C176.87 12.1673 176.585 11.9906 176.146 11.9906C175.733 11.9906 175.254 12.2682 174.712 12.8235C174.169 13.3788 173.704 14.3252 173.316 15.6629L172.231 15.4358C172.308 14.9815 172.463 14.4641 172.696 13.8836C172.954 13.2778 173.29 12.6847 173.704 12.1042C174.117 11.5237 174.621 11.0441 175.216 10.6655C175.81 10.287 176.495 10.0977 177.27 10.0977C178.149 10.0977 178.795 10.3374 179.209 10.817C179.648 11.2713 179.919 11.8644 180.023 12.5963C180.152 13.3283 180.191 14.1107 180.139 14.9436C180.087 15.6503 179.997 16.3318 179.868 16.988C179.764 17.6442 179.661 18.2247 179.557 18.7295H179.674C180.552 16.4327 181.418 14.666 182.271 13.4292C183.124 12.1673 183.964 11.2965 184.791 10.817C185.644 10.3374 186.484 10.0977 187.311 10.0977C188.344 10.0977 189.171 10.3248 189.792 10.7791C190.412 11.2334 190.851 11.8392 191.11 12.5963C191.394 13.3283 191.536 14.1359 191.536 15.0193C191.536 16.4075 191.433 17.8335 191.226 19.2974C191.045 20.736 190.851 22.0737 190.645 23.3104C190.464 24.5219 190.373 25.4936 190.373 26.2256C190.373 26.6799 190.425 27.0837 190.528 27.4371C190.657 27.7904 190.955 27.9671 191.42 27.9671C191.859 27.9671 192.337 27.7021 192.854 27.172C193.397 26.6168 193.862 25.6577 194.25 24.2948L195.335 24.5598C195.258 24.9888 195.09 25.5062 194.831 26.112C194.599 26.7177 194.276 27.3109 193.862 27.8914C193.449 28.4466 192.945 28.9136 192.35 29.2921C191.756 29.6707 191.071 29.86 190.296 29.86Z" fill="white"/>
<path d="M166.446 29.86C165.231 29.86 164.404 29.5445 163.965 28.9136C163.525 28.2826 163.306 27.3866 163.306 26.2256C163.306 25.5189 163.357 24.686 163.461 23.7269C163.59 22.7678 163.732 21.7456 163.887 20.6603C164.068 19.575 164.21 18.4771 164.313 17.3666C164.443 16.256 164.507 15.196 164.507 14.1864C164.507 13.8836 164.456 13.5554 164.352 13.2021C164.275 12.8487 164.107 12.5459 163.848 12.2935C163.59 12.0158 163.202 11.877 162.685 11.877C161.962 11.877 161.238 12.2051 160.514 12.8614C159.791 13.5176 159.106 14.401 158.46 15.5115C157.814 16.622 157.232 17.8587 156.715 19.2217C156.198 20.5593 155.785 21.9475 155.475 23.3861C155.191 24.7996 155.048 26.1499 155.048 27.4371C155.048 27.8156 155.048 28.169 155.048 28.4971C155.074 28.8 155.1 29.1155 155.126 29.4436H151.87C151.844 29.2669 151.831 29.1155 151.831 28.9893C151.831 28.8378 151.831 28.6612 151.831 28.4592C151.831 28.0302 151.857 27.538 151.908 26.9827C151.96 26.4022 152.038 25.6451 152.141 24.7112C152.27 23.7521 152.425 22.4775 152.606 20.8875C152.787 19.3983 152.916 18.2373 152.994 17.4044C153.097 16.5715 153.175 15.9406 153.226 15.5115C153.278 15.0572 153.304 14.7164 153.304 14.4893C153.33 14.2369 153.343 13.9719 153.343 13.6943C153.343 13.2399 153.278 12.8487 153.149 12.5206C153.02 12.1673 152.735 11.9906 152.296 11.9906C151.882 11.9906 151.404 12.2682 150.862 12.8235C150.319 13.3788 149.854 14.3252 149.466 15.6629L148.381 15.4358C148.458 14.9815 148.613 14.4641 148.846 13.8836C149.104 13.2778 149.44 12.6847 149.854 12.1042C150.267 11.5237 150.771 11.0441 151.366 10.6655C151.96 10.287 152.645 10.0977 153.42 10.0977C154.299 10.0977 154.945 10.3374 155.358 10.817C155.798 11.2713 156.069 11.8644 156.173 12.5963C156.302 13.3283 156.341 14.1107 156.289 14.9436C156.237 15.6503 156.147 16.3318 156.018 16.988C155.914 17.6442 155.811 18.2247 155.707 18.7295H155.824C156.702 16.4327 157.568 14.666 158.421 13.4292C159.274 12.1673 160.114 11.2965 160.941 10.817C161.794 10.3374 162.634 10.0977 163.461 10.0977C164.494 10.0977 165.321 10.3248 165.942 10.7791C166.562 11.2334 167.001 11.8392 167.26 12.5963C167.544 13.3283 167.686 14.1359 167.686 15.0193C167.686 16.4075 167.583 17.8335 167.376 19.2974C167.195 20.736 167.001 22.0737 166.794 23.3104C166.614 24.5219 166.523 25.4936 166.523 26.2256C166.523 26.6799 166.575 27.0837 166.678 27.4371C166.807 27.7904 167.105 27.9671 167.57 27.9671C168.009 27.9671 168.487 27.7021 169.004 27.172C169.547 26.6168 170.012 25.6577 170.4 24.2948L171.485 24.5598C171.408 24.9888 171.24 25.5062 170.981 26.112C170.749 26.7177 170.426 27.3109 170.012 27.8914C169.599 28.4466 169.095 28.9136 168.5 29.2921C167.906 29.6707 167.221 29.86 166.446 29.86Z" fill="white"/>
<path d="M139.625 10.0977C140.4 10.0977 141.253 10.1608 142.184 10.287C143.114 10.3879 143.993 10.5393 144.82 10.7413C144.613 12.2556 144.406 13.77 144.199 15.2843C144.018 16.7735 143.838 18.1995 143.657 19.5624C143.502 20.9001 143.372 22.1116 143.269 23.1969C143.166 24.2569 143.114 25.0898 143.114 25.6955C143.114 26.2003 143.153 26.7051 143.23 27.2099C143.308 27.7147 143.631 27.9671 144.199 27.9671C144.639 27.9671 145.117 27.6894 145.634 27.1342C146.176 26.5789 146.642 25.6324 147.029 24.2948L148.115 24.5219C148.037 24.9762 147.869 25.5062 147.611 26.112C147.378 26.6925 147.055 27.273 146.642 27.8535C146.228 28.434 145.724 28.9136 145.13 29.2921C144.535 29.6707 143.85 29.86 143.075 29.86C142.041 29.86 141.305 29.5445 140.865 28.9136C140.426 28.2826 140.206 27.4623 140.206 26.4527C140.206 25.7208 140.271 24.9257 140.4 24.0676C140.555 23.2095 140.723 22.3135 140.904 21.3796H140.788C140.168 23.2473 139.522 24.7491 138.85 25.8848C138.204 26.9954 137.545 27.8409 136.873 28.4214C136.226 29.0019 135.593 29.3805 134.973 29.5572C134.353 29.7591 133.771 29.86 133.229 29.86C131.833 29.86 130.657 29.3552 129.701 28.3457C128.77 27.3361 128.305 25.6451 128.305 23.2726C128.305 21.5058 128.538 19.8274 129.003 18.2373C129.468 16.6473 130.166 15.2465 131.096 14.035C132.053 12.7983 133.242 11.8392 134.663 11.1577C136.084 10.451 137.738 10.0977 139.625 10.0977ZM138.423 11.4606C137.26 11.4606 136.239 11.7761 135.361 12.4071C134.508 13.038 133.797 13.8962 133.229 14.9815C132.66 16.0415 132.234 17.2404 131.949 18.5781C131.691 19.8905 131.562 21.2408 131.562 22.629C131.562 24.2443 131.743 25.582 132.104 26.642C132.466 27.6768 133.125 28.1942 134.081 28.1942C134.779 28.1942 135.477 27.8535 136.175 27.172C136.898 26.4906 137.57 25.582 138.191 24.4462C138.811 23.2852 139.367 21.998 139.858 20.5846C140.349 19.1459 140.736 17.6821 141.021 16.1929C141.305 14.7038 141.447 13.2778 141.447 11.9149C141.059 11.7635 140.607 11.6499 140.09 11.5742C139.573 11.4984 139.018 11.4606 138.423 11.4606Z" fill="white"/>
<path d="M124.188 0.859985C124.111 1.49097 123.995 2.19767 123.84 2.98009C123.71 3.76251 123.581 4.5323 123.452 5.28948C123.348 6.04666 123.258 6.7155 123.18 7.29601C123.025 8.35606 122.87 9.56754 122.715 10.9305C122.56 12.2682 122.405 13.6689 122.25 15.1328C122.095 16.5715 121.953 17.9849 121.824 19.373C121.72 20.7612 121.63 22.0358 121.552 23.1968C121.475 24.3325 121.436 25.2664 121.436 25.9983C121.436 26.4779 121.488 26.9322 121.591 27.3613C121.694 27.7651 121.992 27.967 122.483 27.967C122.922 27.967 123.4 27.702 123.917 27.172C124.46 26.6167 124.925 25.6576 125.313 24.2947L126.398 24.5597C126.321 24.9888 126.153 25.5062 125.894 26.1119C125.662 26.7176 125.338 27.3108 124.925 27.8913C124.511 28.4465 124.007 28.9135 123.413 29.2921C122.845 29.6706 122.173 29.8599 121.397 29.8599C120.338 29.8599 119.562 29.6075 119.071 29.1028C118.58 28.5727 118.322 27.8029 118.296 26.7934C118.27 26.1624 118.296 25.2285 118.374 23.9918C118.477 22.7551 118.593 21.3543 118.722 19.7895C118.877 18.1994 119.045 16.5462 119.226 14.8299C119.407 13.0884 119.601 11.3974 119.808 9.75684C120.015 8.11628 120.208 6.62717 120.389 5.28948C120.519 4.60802 120.596 4.16633 120.622 3.96442C120.674 3.73727 120.712 3.49749 120.738 3.2451C120.273 3.27034 119.808 3.29558 119.343 3.32082C118.903 3.34606 118.451 3.3713 117.986 3.39654L118.18 1.88218C119.317 1.88218 120.196 1.8317 120.816 1.73074C121.462 1.62978 121.953 1.50359 122.289 1.35215C122.625 1.20072 122.896 1.03666 123.103 0.859985H124.188Z" fill="white"/>
<path d="M104.275 2.86652C106.782 2.86652 108.849 3.15677 110.477 3.73727C112.132 4.29254 113.372 5.12543 114.199 6.23596C115.026 7.32125 115.44 8.67155 115.44 10.2869C115.44 11.2712 115.246 12.306 114.858 13.3913C114.47 14.4514 113.798 15.4483 112.842 16.3822C111.886 17.2908 110.555 18.0353 108.849 18.6158C107.144 19.1963 104.96 19.4866 102.298 19.4866C102.169 19.4866 101.949 19.4866 101.639 19.4866C101.329 19.4866 101.044 19.474 100.786 19.4487L100.476 24.9383C100.45 25.6197 100.411 26.2129 100.36 26.7177C100.308 27.1972 100.256 27.601 100.204 27.9291C100.618 27.9039 101.019 27.8787 101.406 27.8534C101.794 27.8282 102.182 27.8156 102.569 27.8156C102.983 27.7903 103.383 27.7651 103.771 27.7398L103.693 29.4435H94.3508L94.4284 28.1942C95.4104 28.1437 96.0953 27.9291 96.483 27.5506C96.8706 27.1467 97.1032 26.6041 97.1807 25.9226C97.2583 25.2159 97.31 24.4209 97.3358 23.5375L98.2274 7.18244C98.2791 6.67765 98.3179 6.1981 98.3437 5.74379C98.3954 5.26425 98.4471 4.83518 98.4988 4.45659C98.0336 4.48183 97.5555 4.50707 97.0645 4.53231C96.5993 4.55755 96.1341 4.58279 95.6689 4.60803L95.7852 2.94223C97.1549 2.91699 98.5376 2.90437 99.9331 2.90437C101.329 2.87913 102.776 2.86652 104.275 2.86652ZM104.12 4.34301C103.319 4.34301 102.724 4.51969 102.337 4.87304C101.949 5.20115 101.703 5.69332 101.6 6.34954C101.497 6.98052 101.419 7.75032 101.367 8.65893L100.864 17.8587C101.355 17.9091 101.781 17.947 102.143 17.9722C102.505 17.9722 102.918 17.9722 103.383 17.9722C104.856 17.9722 106.213 17.6946 107.454 17.1393C108.72 16.5841 109.741 15.7764 110.516 14.7164C111.292 13.6563 111.718 12.3944 111.796 10.9305C111.847 9.74423 111.705 8.73465 111.369 7.90176C111.033 7.04362 110.516 6.36216 109.818 5.85737C109.147 5.32735 108.32 4.94876 107.337 4.7216C106.381 4.46921 105.309 4.34301 104.12 4.34301Z" fill="white"/>
<path d="M0 29.4435V28.1687C1.03529 28.1172 1.74365 27.8983 2.12507 27.512C2.5065 27.0999 2.71083 26.5462 2.73807 25.8508C2.79256 25.1297 2.81981 24.3184 2.81981 23.417V6.72817C2.81981 6.21308 2.83343 5.72374 2.86067 5.26016C2.88792 4.77083 2.91516 4.33301 2.94241 3.94669C2.45201 3.97245 1.96161 3.9982 1.4712 4.02395C0.980803 4.04971 0.490401 4.07546 0 4.10122V2.40143H9.19502V3.67627C8.18698 3.70203 7.47862 3.92094 7.06995 4.33301C6.68853 4.74508 6.47057 5.2988 6.41608 5.99416C6.38884 6.68953 6.37522 7.5008 6.37522 8.42796V14.7635H9.44023L14.5486 7.15311C14.9027 6.63803 15.3387 6.07143 15.8563 5.45332C16.374 4.83522 16.9052 4.32013 17.4501 3.90806C17.0414 3.93382 16.6192 3.94669 16.1832 3.94669C15.7746 3.94669 15.3659 3.95957 14.9572 3.98532V2.40143H23.7436V3.67627C22.5993 3.75353 21.5777 3.93381 20.6786 4.21711C19.7795 4.50041 18.9213 5.00262 18.104 5.72374C17.2866 6.41911 16.4148 7.47504 15.4885 8.89153L11.4836 14.9181C12.2737 15.3559 12.9139 15.871 13.4043 16.4633C13.8947 17.0299 14.3851 17.6094 14.8755 18.2017L19.4526 23.9579C20.4879 25.2456 21.3325 26.1985 21.9863 26.8166C22.6674 27.4089 23.2668 27.7824 23.7845 27.9369C24.3294 28.0914 24.8879 28.1687 25.46 28.1687V29.4435H20.4743C20.2018 29.4435 19.834 29.2633 19.3709 28.9027C18.9349 28.5421 18.4582 28.0786 17.9405 27.512C17.4229 26.9196 16.8916 26.3015 16.3467 25.6576L11.4427 19.3993C10.9251 18.7555 10.4074 18.1502 9.88976 17.5836C9.37211 16.9913 8.86809 16.5535 8.37769 16.2702L6.37522 16.3088V24.8464C6.37522 25.5417 6.36159 26.147 6.33435 26.6621C6.33435 27.1514 6.30711 27.5635 6.25262 27.8983C6.74302 27.8725 7.23342 27.8468 7.72382 27.821C8.21422 27.7953 8.70462 27.7695 9.19502 27.7437V29.4435H0Z" fill="white"/>
<path d="M81.5171 10.5527C81.4898 9.03318 81.3264 7.77122 81.0267 6.7668C80.727 5.76238 80.1957 5.0155 79.4329 4.52617C78.6973 4.01108 77.6211 3.76641 76.2044 3.79217H72.7307L72.6899 24.8464C72.6899 25.5417 72.6762 26.147 72.649 26.6621C72.649 27.1514 72.6217 27.5635 72.5673 27.8983C73.1394 27.8725 73.6979 27.8468 74.2428 27.821C74.8149 27.7953 75.3871 27.7695 75.9592 27.7437V29.4435H66.3555V28.1687C67.3908 28.1172 68.0855 27.8854 68.4397 27.4733C68.8211 27.0613 69.0255 26.5075 69.0527 25.8122C69.1072 25.091 69.1345 24.2927 69.1345 23.417L69.1753 3.8308L64.966 3.86943C63.2496 3.86943 62.0373 4.41027 61.3289 5.49196C60.6205 6.57364 60.2664 8.26055 60.2664 10.5527H58.7543L58.9995 2.40143H82.8248L83.07 10.5527H81.5171Z" fill="white"/>
<path fill-rule="evenodd" clip-rule="evenodd" d="M54.8901 2.40143L26.4003 29.4435H29.5453L58.0351 2.40143H54.8901Z" fill="white"/>
</svg>
